# xmcd CD database file
#
# Track frame offsets:
#	150
#	12188
#	23183
#	35110
#	46788
#	58385
#	69690
#	84428
#	95198
#	107098
#	117503
#	131133
#	143180
#	154665
#	165423
#	177303
#	189660
#	199980
#	211693
#	224493
#
# Disc length: 3156 seconds
#
# Revision: 0
# Processed by: cddbd v1.5PL0 Copyright (c) Steve Scherf et al.
# Submitted via: CDex 1.40Release
#
DISCID=2d0c5214
DTITLE=Tommy Sosebee - The Voice Of The Hills
DYEAR=1900
DGENRE=Country
TTITLE0=Barber Shop Boogie (1953)
TTITLE1=Time (1954)
TTITLE2=Cryin' In Vain (1947)
TTITLE3=The Gospel Train Is Coming (1947)
TTITLE4=Anywhere, Anyplace, Anytime (1952)
TTITLE5=(I Don't Care) If The World Ends Tomorrow (1949)
TTITLE6=My Tears Are Still Falling For You (1949)
TTITLE7=Don't Count Me Out (1954)
TTITLE8=Love Me (1952)
TTITLE9=Don't Trade Your Love For Gold (1951)
TTITLE10=The Lord Lives At Your House (1951)
TTITLE11=Honky Tonk Waltz (1953)
TTITLE12=That's What I Call Love (1954)
TTITLE13=Wedding Blossoms (1951)
TTITLE14=Homesick, Lonesome And Sorry (1951)
TTITLE15=No Good Without You (1951)
TTITLE16=Year After Year (1951)
TTITLE17=Saviour Of The Old Rugged Cross (1951)
TTITLE18=You're Fixin' To Break My Heart (1951)
TTITLE19=New Year Bells (1951)
EXTD=ID3G: 2
EXTT0=
EXTT1=
EXTT2=
EXTT3=
EXTT4=
EXTT5=
EXTT6=
EXTT7=
EXTT8=
EXTT9=
EXTT10=
EXTT11=
EXTT12=
EXTT13=
EXTT14=
EXTT15=
EXTT16=
EXTT17=
EXTT18=
EXTT19=
PLAYORDER=
